<svg width="260" height="50" viewBox="0 0 260 50" fill="none" xmlns="http://www.w3.org/2000/svg">
<g clip-path="url(#clip0_261_790)">
<path d="M183.262 49.9608C179.798 49.9668 176.332 49.9664 172.869 49.9873C172.469 49.9899 172.329 49.9265 172.33 49.4844C172.345 38.2334 172.345 26.9823 172.33 15.7313C172.33 15.2955 172.464 15.2154 172.873 15.2187C176.754 15.2493 180.636 15.1315 184.515 15.3268C187.093 15.4566 189.656 15.7921 192.061 16.8004C194.865 17.9758 196.954 19.9728 198.584 22.4648C200.004 24.6344 200.801 27.0128 201.118 29.5749C201.292 30.981 201.409 32.3812 201.325 33.7918C201.096 37.6642 199.996 41.2243 197.471 44.2912C195.186 47.0673 192.281 48.7839 188.707 49.408C188.41 49.4598 188.115 49.5228 187.819 49.5806C187.727 49.5433 187.65 49.5683 187.58 49.6287L186.911 49.7118C186.823 49.6652 186.745 49.6868 186.671 49.7416L185.888 49.8162C185.763 49.7632 185.647 49.7915 185.534 49.8534L183.956 49.928C183.722 49.8635 183.491 49.8907 183.262 49.9608ZM179.059 32.5821V36.049C179.059 38.3779 179.06 40.7066 179.061 43.0353C179.061 43.2511 178.95 43.5221 179.381 43.5139C181.762 43.4684 184.153 43.6403 186.513 43.1508C190.029 42.4217 192.672 40.6364 193.897 37.1863C194.751 34.7797 194.882 32.3092 194.389 29.8079C193.556 25.5921 190.926 22.9908 186.673 22.1085C184.331 21.6238 181.965 21.7316 179.601 21.6902C179.142 21.6824 179.048 21.8192 179.05 22.2453C179.066 25.6886 179.058 29.1354 179.058 32.5821H179.059Z" fill="#30487C"/>
<path d="M61.9999 27.5438V28.1064C61.9999 35.2039 62.0036 42.3011 62.0109 49.3981C62.0109 49.8522 61.9147 49.9946 61.4315 49.9875C59.5957 49.9584 57.7583 49.9636 55.9225 49.9856C55.5253 49.9905 55.4249 49.8891 55.4253 49.4973C55.4367 38.246 55.4367 26.9947 55.4253 15.7435C55.4253 15.3334 55.512 15.2063 55.9501 15.213C57.7481 15.2395 59.5476 15.2275 61.3459 15.2204C61.6462 15.2204 61.8469 15.2741 62.0359 15.5627C66.1882 21.9059 70.3509 28.2432 74.5239 34.5745C75.2055 35.6093 75.9 36.6345 76.5937 37.6607C76.6505 37.7446 76.6612 37.9079 76.8066 37.8844C77.0016 37.852 76.9247 37.6779 76.9251 37.5649C76.9301 35.9443 76.9313 34.3237 76.9285 32.7031C76.9285 27.059 76.9257 21.4147 76.9202 15.7703C76.9202 15.3602 76.988 15.2048 77.4594 15.2111C79.3528 15.2424 81.2462 15.2391 83.1396 15.2134C83.6057 15.207 83.7076 15.3576 83.7076 15.7897C83.697 27.0228 83.697 38.2559 83.7076 49.4891C83.7076 49.8749 83.6114 49.9912 83.2092 49.9868C81.373 49.9655 79.5361 49.9703 77.6999 49.983C77.3212 49.9856 77.094 49.8589 76.88 49.5357C75.1889 46.9747 73.4753 44.4286 71.7679 41.8765C70.6129 40.151 69.4572 38.4259 68.3007 36.7012C66.2591 33.6712 64.2143 30.6431 62.1661 27.6169C62.1408 27.5811 62.1457 27.4987 61.9999 27.5438Z" fill="#AAC4FF"/>
<path d="M95.5431 49.9662C92.1729 49.9696 88.8026 49.9618 85.4324 49.989C84.9466 49.9927 84.8553 49.8581 84.8557 49.4052C84.8693 38.2081 84.8684 27.0109 84.853 15.8135C84.853 15.3006 85.0015 15.2096 85.4835 15.2141C89.3082 15.2514 93.1355 15.1332 96.9575 15.3203C99.6711 15.4534 102.373 15.7912 104.876 16.9151C106.849 17.8001 108.517 19.1059 109.884 20.7801C111.545 22.814 112.745 25.0645 113.31 27.6251C113.609 28.9771 113.79 30.352 113.849 31.7346C113.963 34.4578 113.669 37.1269 112.681 39.6711C111.44 42.8685 109.475 45.5469 106.486 47.4153C105.615 47.9607 104.724 48.4639 103.732 48.7696C103.531 48.8069 103.329 48.8442 103.158 48.9687L102.597 49.1129L102.362 49.1875L102.142 49.2248C102.1 49.2137 102.056 49.2145 102.014 49.2269C101.972 49.2394 101.935 49.263 101.906 49.2952L101.576 49.3523L101.339 49.4115L101.008 49.4641C100.917 49.432 100.84 49.4641 100.77 49.5208L100.438 49.5606C100.378 49.5461 100.316 49.5449 100.255 49.5572C100.195 49.5695 100.138 49.595 100.089 49.6318L99.5317 49.6945C99.4052 49.6475 99.2905 49.6825 99.1795 49.744L98.5081 49.8C98.3453 49.7545 98.1923 49.7873 98.0431 49.8551L96.8029 49.9062C96.3792 49.8581 95.96 49.8935 95.5431 49.9662ZM91.5848 32.5835C91.5848 36.0488 91.5859 39.5139 91.5882 42.9788C91.5882 43.2088 91.4594 43.5171 91.926 43.5089C94.3075 43.4664 96.6973 43.6372 99.0572 43.1462C102.32 42.4674 104.894 40.883 106.21 37.745C107.222 35.3327 107.432 32.812 107.011 30.2353C106.279 25.7687 103.628 23.0317 99.1473 22.0938C96.8261 21.6091 94.4771 21.7273 92.1327 21.6837C91.6734 21.6755 91.573 21.8108 91.5749 22.2429C91.5927 25.6904 91.5852 29.1371 91.5848 32.5835Z" fill="#AAC4FF"/>
<path d="M129.857 49.8504L129.074 49.925C128.881 49.8773 128.678 49.8903 128.493 49.9622C124.271 49.9682 120.048 49.9622 115.829 49.9932C115.31 49.9969 115.218 49.8519 115.218 49.3751C115.232 38.1986 115.232 27.0224 115.218 15.8464C115.218 15.3395 115.345 15.2105 115.862 15.215C118.72 15.2414 121.58 15.181 124.436 15.3223C126.122 15.4058 127.825 15.4341 129.465 15.8815C132.15 16.6114 134.393 18.0142 135.707 20.488C136.963 22.8521 137.019 25.2864 135.724 27.724C135.055 28.9814 134.167 30.0144 133.012 30.9046C134.302 31.5879 135.515 32.2976 136.52 33.3168C138.085 34.9045 138.919 36.7837 139.072 38.9868C139.204 40.8861 138.956 42.7035 138.052 44.4019C137.105 46.1789 135.709 47.5753 134.036 48.6732C133.112 49.2797 131.977 49.456 130.893 49.6886L130.655 49.7457L130.099 49.818C130.008 49.7699 129.933 49.7926 129.857 49.8504ZM121.966 39.1729C121.966 40.513 121.977 41.8539 121.958 43.194C121.953 43.5526 122.043 43.6917 122.431 43.6727C123.053 43.6421 123.68 43.6727 124.304 43.663C126.023 43.6328 127.738 43.6287 129.444 43.3036C132.197 42.7791 132.93 40.3587 132.398 38.4079C131.854 36.4109 130.403 35.4801 128.467 35.0961C126.504 34.7062 124.513 34.808 122.529 34.7729C122.095 34.7655 121.942 34.8624 121.953 35.319C121.988 36.604 121.966 37.8879 121.966 39.1729H121.966ZM121.966 25.2648C121.966 26.3626 121.966 27.4604 121.966 28.5579C121.966 28.7916 121.939 28.9847 122.304 28.9751C123.533 28.943 124.765 28.9922 125.99 28.9247C127.099 28.864 128.179 28.5829 128.993 27.7855C130.106 26.697 130.306 25.349 129.884 23.9131C129.468 22.4905 128.29 21.9429 126.956 21.6984C125.403 21.4143 123.824 21.6164 122.257 21.5623C121.913 21.5504 121.968 21.7733 121.968 21.9724C121.966 23.0696 121.966 24.167 121.967 25.2648H121.966Z" fill="#30487C"/>
<path d="M163.717 49.978H158.85C158.301 49.978 157.746 49.9314 157.204 49.991C156.662 50.0507 156.393 49.8121 156.17 49.3815C155.4 47.8956 154.625 46.4123 153.828 44.9398C152.997 43.4036 152.138 41.883 151.295 40.352C150.934 39.6989 150.556 39.0533 150.239 38.3804C150.141 38.1731 150.066 38.1083 149.851 38.1101C148.771 38.1187 147.692 38.1325 146.613 38.1049C146.174 38.0937 146.238 38.3472 146.238 38.6063C146.238 42.2021 146.227 45.798 146.253 49.3935C146.257 49.8997 146.116 49.9977 145.631 49.9899C143.757 49.9605 141.882 49.9679 140.008 49.9866C139.631 49.9903 139.496 49.9254 139.497 49.5135C139.509 38.2418 139.509 26.9702 139.497 15.6985C139.497 15.2885 139.634 15.2176 140.013 15.2188C144.084 15.2318 148.155 15.2188 152.227 15.2292C155.309 15.2355 158.048 16.1679 160.284 18.2998C162.211 20.1372 163.434 22.3378 163.73 25.0117C164.021 27.6517 163.73 30.1718 162.352 32.502C161.192 34.4628 159.485 35.8481 157.467 36.8796C157.029 37.1033 156.971 37.2598 157.212 37.6997C159.336 41.6001 161.431 45.5165 163.53 49.43C163.614 49.5888 163.766 49.726 163.717 49.978ZM146.238 26.6907C146.238 28.1982 146.25 29.7062 146.23 31.2133C146.225 31.5641 146.331 31.6487 146.675 31.6454C148.358 31.6286 150.042 31.6431 151.725 31.6357C153.633 31.6275 155.051 30.7429 156.046 29.1932C158 26.1502 155.911 22.0395 152.284 21.7782C150.396 21.6425 148.502 21.7588 146.611 21.7171C146.24 21.7085 146.233 21.899 146.235 22.1681C146.242 23.6757 146.238 25.1832 146.238 26.6907Z" fill="#30487C"/>
<path d="M230.305 38.0057C228.394 37.9945 226.482 37.9839 224.571 37.974C223.34 37.9692 222.11 37.9613 220.879 37.98C220.511 37.9856 220.342 37.9252 220.349 37.5039C220.373 35.8089 220.369 34.1116 220.352 32.4181C220.348 32.0546 220.449 31.951 220.825 31.9517C226.373 31.9637 231.921 31.9619 237.469 31.9465C237.987 31.9443 238.023 32.1914 238.021 32.5511C238.012 34.481 237.716 36.3662 237.074 38.1921C236.223 40.6084 234.92 42.7489 233.102 44.5935C230.88 46.848 228.283 48.4756 225.202 49.3326L224.968 49.4146L224.294 49.5671C224.202 49.5407 224.126 49.5723 224.058 49.6324L223.726 49.6793C223.685 49.6652 223.64 49.6633 223.598 49.6739C223.556 49.6844 223.518 49.7069 223.489 49.7386L223.045 49.7967C223.005 49.7808 222.96 49.7773 222.917 49.7869C222.875 49.7965 222.836 49.8187 222.807 49.8504L222.248 49.894C221.902 49.8598 221.554 49.885 221.217 49.9686H219.511C219.174 49.8845 218.825 49.8593 218.48 49.894L217.921 49.8504C217.891 49.8188 217.853 49.7968 217.81 49.7873C217.768 49.7778 217.723 49.7814 217.683 49.7975L217.239 49.7386C217.209 49.707 217.171 49.6845 217.129 49.674C217.087 49.6635 217.043 49.6653 217.001 49.6793L216.67 49.6324L216.433 49.5679L215.76 49.415L215.526 49.3334C211.907 48.441 209.03 46.4343 206.665 43.6485C205.112 41.8219 204.04 39.7522 203.351 37.473C202.783 35.5889 202.666 33.6676 202.707 31.7191C202.754 29.5786 203.253 27.529 204.138 25.6033C205.626 22.369 207.85 19.7282 210.968 17.8494C213.228 16.4876 215.657 15.6049 218.277 15.3596C221.449 15.0614 224.551 15.3898 227.504 16.7262C229.524 17.6403 231.306 18.8559 232.936 20.4052C231.762 21.4207 230.603 22.4205 229.444 23.4191C229.402 23.4564 229.344 23.4728 229.302 23.5079C228.966 23.7871 228.692 24.3168 228.297 24.2952C227.943 24.2758 227.615 23.8322 227.274 23.5738C225.907 22.5327 224.434 21.714 222.692 21.4538C222.665 21.4201 222.627 21.3957 222.585 21.3839C222.542 21.3721 222.497 21.3735 222.456 21.3878L222.011 21.3427C221.961 21.3058 221.904 21.2807 221.843 21.2697C221.782 21.2586 221.719 21.2618 221.66 21.279L220.533 21.2328C220.482 21.201 220.423 21.1841 220.363 21.1841C220.302 21.1841 220.243 21.201 220.192 21.2328L219.065 21.2783C219.006 21.2611 218.943 21.2581 218.882 21.2693C218.821 21.2805 218.764 21.3056 218.715 21.3427L218.27 21.3882C218.228 21.3738 218.183 21.3723 218.141 21.384C218.098 21.3957 218.06 21.4199 218.033 21.4535C216.849 21.6619 215.778 22.1181 214.722 22.6933C214.03 23.0706 213.373 23.4639 212.781 23.9701C210.877 25.5992 209.588 27.6036 209.055 30.0401C208.088 34.4661 209.389 38.2085 212.753 41.2269C214.535 42.8257 216.693 43.7208 219.12 43.9549C223.197 44.3482 226.462 42.8187 229.129 39.8875C229.581 39.3906 229.922 38.7956 230.313 38.2473C230.387 38.1626 230.544 38.0773 230.305 38.0057Z" fill="#30487C"/>
<path d="M30.182 43.016C29.2534 45.2258 28.3155 47.4316 27.4081 49.6515C27.301 49.9124 27.1915 49.984 26.9322 49.9832C24.8873 49.9758 22.8424 49.9698 20.7976 49.9873C20.4189 49.9907 20.3765 49.8144 20.478 49.559C21.4269 47.165 22.3929 44.7777 23.3434 42.3845C23.9796 40.7815 24.5968 39.1722 25.2258 37.5666C26.1851 35.119 27.1445 32.671 28.1038 30.2229C29.0005 27.9337 29.8967 25.6437 30.7924 23.3529C31.752 20.9059 32.7615 18.4765 33.6476 16.0043C33.8956 15.3127 34.2156 15.1976 34.8635 15.2121C36.6433 15.252 38.4231 15.2255 40.2029 15.2263C40.8762 15.2263 41.0208 15.4268 40.7709 16.0736C40.0166 18.0232 39.2549 19.9705 38.486 21.9155C36.6307 26.5847 34.7674 31.2504 32.8959 35.9126C32.713 36.3663 32.8062 36.4304 33.2542 36.4282C36.0753 36.4136 38.8965 36.4204 41.7169 36.42H42.1618C41.5241 34.8282 41.0144 33.2402 40.2586 31.7751C39.7284 30.7462 40.2234 29.9951 40.5346 29.1589C41.0125 27.8758 41.5275 26.6054 42.0459 25.3372C42.4803 24.2755 42.8268 23.1751 43.3955 22.0597L54.3848 49.9776H48.6955C47.2224 49.9776 47.2315 49.9743 46.7381 48.6107C46.1023 46.8538 45.4506 45.1024 44.8069 43.3477C44.769 43.2482 44.7626 43.1382 44.7417 43.0331C44.7039 42.7349 44.4634 42.8355 44.3006 42.8355C39.7499 42.8303 35.1994 42.8303 30.6493 42.8355C30.4796 42.8355 30.2539 42.7487 30.182 43.016Z" fill="#AAC4FF"/>
<path d="M0.0113599 32.6103C0.0113599 27.004 0.0177978 21.3978 0 15.7919C0 15.3297 0.106788 15.207 0.582785 15.2152C2.40044 15.2458 4.21809 15.2458 6.03574 15.2152C6.50568 15.2074 6.58217 15.3643 6.58142 15.7781C6.57043 24.8486 6.57952 33.9191 6.55794 42.9911C6.55794 43.5641 6.70524 43.6838 7.26796 43.68C11.1861 43.6539 15.1066 43.6741 19.0232 43.6558C19.4898 43.6536 19.6318 43.7654 19.6238 44.2381C19.5943 45.9902 19.6004 47.7396 19.6208 49.4902C19.6253 49.8745 19.5284 49.9905 19.124 49.9897C12.9137 49.9766 6.70449 49.9775 0.496447 49.9927C0.00833149 49.9927 0.00681629 49.7862 0.00719497 49.4302C0.0140112 43.8228 0.0153991 38.2162 0.0113599 32.6103Z" fill="#AAC4FF"/>
<path d="M170.576 32.6348C170.576 38.2243 170.58 43.8138 170.587 49.4033C170.587 49.8506 170.508 49.9997 170.013 49.9919C168.177 49.9587 166.34 49.9673 164.503 49.9878C164.109 49.9923 164.002 49.8938 164.003 49.4994C164.014 38.2462 164.014 26.9928 164.003 15.7393C164.003 15.3102 164.131 15.2129 164.548 15.2174C166.366 15.2401 168.184 15.2453 170.001 15.2152C170.491 15.207 170.587 15.3602 170.586 15.8116C170.572 21.419 170.569 27.0267 170.576 32.6348Z" fill="#30487C"/>
<path d="M253.154 0.0126869C252.027 0.0133959 250.919 0.288851 249.927 0.814457C248.935 1.34006 248.091 2.09943 247.47 3.02468C246.849 3.94993 246.47 5.01224 246.368 6.11663C246.266 7.22102 246.444 8.3331 246.885 9.35345L228.007 24.1353C225.876 22.2669 223.12 21.2364 220.266 21.2403C216.2 21.2403 212.621 23.2906 210.534 26.394L176.65 11.1927C176.765 10.6037 176.823 10.0052 176.823 9.40528C176.823 4.21095 172.544 0 167.268 0C161.993 0 157.714 4.21244 157.714 9.40528C157.713 10.665 157.969 11.9122 158.468 13.0723L131.046 34.1624C129.718 33.2198 128.089 32.7805 126.459 32.9251C124.828 33.0696 123.305 33.7884 122.169 34.9493C121.034 36.1103 120.361 37.6356 120.276 39.2451C120.191 40.8547 120.698 42.4406 121.705 43.7116C122.712 44.9826 124.15 45.8534 125.757 46.1642C127.364 46.475 129.03 46.205 130.451 45.4036C131.871 44.6022 132.95 43.3233 133.49 41.8017C134.03 40.28 133.994 38.6178 133.389 37.1201L160.63 16.1698C161.632 17.1229 162.833 17.8489 164.15 18.2967C165.467 18.7445 166.867 18.9033 168.253 18.7621C169.639 18.6208 170.977 18.1829 172.173 17.479C173.368 16.7751 174.393 15.8222 175.175 14.6872L208.971 29.8489C208.726 30.7878 208.602 31.7533 208.602 32.7227C208.602 39.0637 213.824 44.2044 220.266 44.2044C226.707 44.2044 231.929 39.0637 231.929 32.7227C231.932 30.6692 231.373 28.6529 230.311 26.8857L249.14 12.1411C250.009 12.7663 251.017 13.1799 252.08 13.3479C253.143 13.516 254.231 13.4337 255.256 13.1079C256.28 12.782 257.212 12.2219 257.974 11.4734C258.737 10.7248 259.308 9.80913 259.641 8.80134C259.975 7.79356 260.061 6.72234 259.893 5.67541C259.725 4.62848 259.308 3.63562 258.675 2.77818C258.042 1.92074 257.211 1.2231 256.252 0.742413C255.292 0.261722 254.231 0.0116503 253.154 0.0126869ZM127.054 41.9479C126.582 41.9479 126.121 41.8102 125.729 41.5521C125.337 41.2941 125.031 40.9273 124.85 40.4982C124.67 40.069 124.622 39.5968 124.714 39.1412C124.806 38.6857 125.034 38.2672 125.367 37.9388C125.701 37.6103 126.126 37.3866 126.589 37.296C127.052 37.2054 127.531 37.2519 127.967 37.4297C128.403 37.6074 128.776 37.9084 129.038 38.2946C129.3 38.6809 129.44 39.1349 129.44 39.5994C129.44 40.2223 129.189 40.8196 128.741 41.2601C128.294 41.7005 127.687 41.9479 127.054 41.9479ZM167.27 13.6647C166.414 13.6647 165.578 13.4149 164.866 12.9468C164.154 12.4788 163.6 11.8136 163.272 11.0353C162.945 10.257 162.859 9.40055 163.026 8.57431C163.193 7.74807 163.605 6.98912 164.21 6.39343C164.815 5.79774 165.586 5.39208 166.426 5.22773C167.265 5.06338 168.135 5.14772 168.926 5.47011C169.716 5.79249 170.392 6.33843 170.867 7.03888C171.343 7.73934 171.597 8.56285 171.597 9.40528C171.597 10.5349 171.141 11.6183 170.329 12.4171C169.518 13.2159 168.417 13.6647 167.27 13.6647ZM220.267 39.6102C216.405 39.6102 213.27 36.5266 213.27 32.7227C213.27 28.9189 216.403 25.8349 220.267 25.8349C224.131 25.8349 227.264 28.9185 227.264 32.7227C227.264 36.527 224.13 39.6091 220.266 39.6091L220.267 39.6102ZM253.154 9.06864C252.682 9.06864 252.221 8.93091 251.828 8.67286C251.436 8.4148 251.13 8.04801 250.95 7.61888C250.769 7.18974 250.722 6.71753 250.814 6.26196C250.906 5.80639 251.133 5.38793 251.467 5.05948C251.801 4.73104 252.226 4.50735 252.688 4.41673C253.151 4.32611 253.631 4.37263 254.067 4.55039C254.503 4.72814 254.875 5.02914 255.138 5.41535C255.4 5.80157 255.54 6.25563 255.54 6.72012C255.54 7.34299 255.288 7.94035 254.841 8.38078C254.393 8.82122 253.787 9.06864 253.154 9.06864Z" fill="#AAC4FF"/>
<path d="M183.262 49.9608C179.798 49.9668 176.332 49.9664 172.869 49.9873C172.469 49.9899 172.329 49.9265 172.33 49.4844C172.345 38.2334 172.345 26.9823 172.33 15.7313C172.33 15.2955 172.464 15.2154 172.873 15.2187C176.754 15.2493 180.636 15.1315 184.515 15.3268C187.093 15.4566 189.656 15.7921 192.061 16.8004C194.865 17.9758 196.954 19.9728 198.584 22.4648C200.004 24.6344 200.801 27.0128 201.118 29.5749C201.292 30.981 201.409 32.3812 201.325 33.7918C201.096 37.6642 199.996 41.2243 197.471 44.2912C195.186 47.0673 192.281 48.7839 188.707 49.408C188.41 49.4598 188.115 49.5228 187.819 49.5806C187.727 49.5433 187.65 49.5683 187.58 49.6287L186.911 49.7118C186.823 49.6652 186.745 49.6868 186.671 49.7416L185.888 49.8162C185.763 49.7632 185.647 49.7915 185.534 49.8534L183.956 49.928C183.722 49.8635 183.491 49.8907 183.262 49.9608ZM179.059 32.5821V36.049C179.059 38.3779 179.06 40.7066 179.061 43.0353C179.061 43.2511 178.95 43.5221 179.381 43.5139C181.762 43.4684 184.153 43.6403 186.513 43.1508C190.029 42.4217 192.672 40.6364 193.897 37.1863C194.751 34.7797 194.882 32.3092 194.389 29.8079C193.556 25.5921 190.926 22.9908 186.673 22.1085C184.331 21.6238 181.965 21.7316 179.601 21.6902C179.142 21.6824 179.048 21.8192 179.05 22.2453C179.066 25.6886 179.058 29.1354 179.058 32.5821H179.059Z" fill="#30487C"/>
<path d="M238.793 32.6023C238.793 27.0141 238.79 21.4255 238.783 15.8365C238.783 15.3683 238.866 15.2091 239.393 15.211C246.057 15.2318 252.722 15.2318 259.387 15.211C259.921 15.211 259.998 15.3768 259.993 15.8383C259.967 17.5706 259.949 19.3052 260 21.0353C260.018 21.634 259.817 21.7108 259.281 21.7082C254.85 21.6873 250.42 21.7081 245.989 21.6828C245.447 21.6794 245.345 21.845 245.35 22.3333C245.375 24.4753 245.379 26.6181 245.348 28.7601C245.341 29.2998 245.443 29.481 246.048 29.4773C250.497 29.4474 254.946 29.4687 259.396 29.4516C259.855 29.4516 260.004 29.5395 259.995 30.0212C259.962 31.7531 259.968 33.4862 259.992 35.2181C259.998 35.6442 259.9 35.7773 259.441 35.7743C254.954 35.7556 250.467 35.7706 245.979 35.7519C245.496 35.7497 245.339 35.8418 245.347 36.3521C245.38 38.5498 245.381 40.7478 245.35 42.9462C245.344 43.4282 245.494 43.5158 245.95 43.514C250.419 43.4964 254.887 43.514 259.355 43.4894C259.897 43.4864 259.999 43.6489 259.993 44.1388C259.965 45.9281 259.968 47.7156 259.993 49.5034C259.999 49.906 259.877 49.9858 259.489 49.9855C252.767 49.9733 246.046 49.9744 239.324 49.9888C238.848 49.9888 238.786 49.8307 238.787 49.4248C238.797 43.8174 238.799 38.2099 238.793 32.6023Z" fill="#30487C"/>
<path d="M150.101 15.235C150.101 15.235 150.643 15.2201 151.546 15.2201C152.449 15.2201 156.813 15.071 159.793 17.8721C162.773 20.6732 162.743 21.9906 162.743 21.9906L156.166 24.2724C156.166 24.2724 155.165 22.3194 153.222 21.9533C151.278 21.5872 146.772 21.7091 146.772 21.7091L150.101 15.235Z" fill="#30487C"/>
</g>
<defs>
<clipPath id="clip0_261_790">
<rect width="260" height="50" fill="white"/>
</clipPath>
</defs>
</svg>
